<svg width="76" height="76" viewBox="0 0 76 76" fill="none" xmlns="http://www.w3.org/2000/svg">
<g clip-path="url(#clip0_86_27454)">
<path d="M38 75.5C58.7107 75.5 75.5 58.7107 75.5 38C75.5 17.2893 58.7107 0.5 38 0.5C17.2893 0.5 0.5 17.2893 0.5 38C0.5 58.7107 17.2893 75.5 38 75.5Z" fill="#4ED288"/>
<path d="M51.5417 27.7059C50.6838 26.848 49.3971 26.848 48.5392 27.7059L32.6691 43.7904L26.0208 37.1422C25.163 36.2843 23.6618 36.2843 23.0184 37.1422C22.1605 38 22.1605 39.5012 23.0184 40.1446L31.1679 48.2941C32.0257 49.152 33.3125 49.152 34.1703 48.2941L51.7561 30.7083C52.3995 30.065 52.3995 28.5637 51.5417 27.7059Z" fill="white"/>
</g>
<defs>
<clipPath id="clip0_86_27454">
<rect width="75" height="75" fill="white" transform="translate(0.5 0.5)"/>
</clipPath>
</defs>
</svg>
