<svg width="193" height="25" viewBox="0 0 193 25" fill="none" xmlns="http://www.w3.org/2000/svg">
<path d="M186.358 10.2554H185.891C185.214 10.2554 184.564 10.6099 183.941 11.3188C183.329 12.0171 183.023 12.855 183.023 13.8325V14.0903C183.023 14.4878 183.243 14.6865 183.684 14.6865L183.845 14.7188H184.989L185.069 14.7026L187.76 14.5415C187.921 14.5093 188.029 14.4932 188.083 14.4932C188.63 14.4932 188.904 14.2085 188.904 13.6392V13.1074C188.904 12.3877 188.646 11.7324 188.131 11.1416C187.615 10.5508 187.024 10.2554 186.358 10.2554ZM183.216 17.9253C183.216 18.9995 183.721 19.9287 184.731 20.7129C185.483 21.3037 186.439 21.5991 187.599 21.5991C188.125 21.5991 188.904 21.4487 189.936 21.1479C190.978 20.8472 191.579 20.6968 191.74 20.6968C192.224 20.6968 192.465 20.96 192.465 21.4863C192.465 22.1094 191.821 22.7432 190.532 23.3877C189.253 24.0215 187.927 24.3384 186.552 24.3384H185.843C185.821 24.3384 185.794 24.3384 185.762 24.3384C184.892 24.3384 184.006 24.1611 183.104 23.8066C181.32 23.1191 180.053 21.916 179.301 20.1973C178.785 19.0156 178.527 17.8931 178.527 16.8296V16.0884C178.527 15.0034 178.715 13.9561 179.091 12.9463C179.8 11.0449 181.052 9.67529 182.846 8.8374C183.92 8.34326 185.048 8.09619 186.229 8.09619H186.6C188.351 8.09619 189.828 8.63867 191.031 9.72363C191.665 10.3037 192.148 11.002 192.481 11.8184C192.825 12.6348 192.997 13.4673 192.997 14.3159C192.997 15.1538 192.583 15.707 191.756 15.9756C190.596 16.3516 188.448 16.5396 185.311 16.5396C184.473 16.5396 183.915 16.647 183.635 16.8618C183.356 17.0659 183.216 17.4204 183.216 17.9253Z" fill="#2D6346"/>
<path d="M177.658 22.8721C177.658 23.2695 177.331 23.5649 176.675 23.7583C176.031 23.9409 174.94 24.0322 173.404 24.0322C171.879 24.0322 170.966 23.9248 170.665 23.71C170.364 23.4951 170.214 23.2427 170.214 22.9526C170.214 22.6519 170.348 22.2007 170.617 21.5991C170.896 20.9976 171.068 20.5142 171.132 20.1489C171.197 19.7837 171.229 18.5483 171.229 16.4429C171.229 14.3374 171.046 12.9033 170.681 12.1406C170.327 11.3672 169.623 10.9805 168.57 10.9805C167.518 10.9805 166.664 11.437 166.008 12.3501C165.568 12.9624 165.348 14.085 165.348 15.7178C165.348 18.4141 165.595 20.3906 166.089 21.6475C166.39 22.3779 166.54 22.8506 166.54 23.0654C166.54 23.4736 166.293 23.7314 165.799 23.8389C165.305 23.9355 164.23 23.9839 162.576 23.9839C160.933 23.9839 159.939 23.8765 159.595 23.6616C159.251 23.436 159.08 23.1353 159.08 22.7593C159.08 22.3833 159.364 22.0073 159.934 21.6313C160.503 21.2554 160.825 20.917 160.9 20.6162C160.976 20.3047 161.013 18.9404 161.013 16.5234C161.013 14.0957 160.933 12.6777 160.771 12.2695C160.61 11.8506 160.288 11.3672 159.805 10.8193C159.321 10.2715 159.08 9.99219 159.08 9.98145V9.64307C159.08 9.46045 159.214 9.29395 159.482 9.14355C160.417 8.60645 161.808 8.33789 163.656 8.33789C164.171 8.33789 164.601 8.59033 164.945 9.09521C165.299 9.6001 165.557 9.85254 165.718 9.85254C165.879 9.85254 166.255 9.68066 166.846 9.33691C167.448 8.98242 167.775 8.79443 167.829 8.77295C168.688 8.37549 169.489 8.17676 170.23 8.17676H170.746C172.625 8.17676 173.968 8.92871 174.774 10.4326C175.29 11.4102 175.547 13.7573 175.547 17.4741C175.547 19.4614 175.612 20.5947 175.741 20.874C175.87 21.1533 176.219 21.4756 176.788 21.8408C177.368 22.1953 177.658 22.5391 177.658 22.8721Z" fill="#2D6346"/>
<path d="M150.653 3.10107C150.653 2.47803 150.895 1.95166 151.378 1.52197C151.873 1.09229 152.404 0.877441 152.974 0.877441H153.489C153.65 0.909668 153.785 0.925781 153.892 0.925781C154.408 0.925781 154.864 1.15674 155.262 1.61865C155.659 2.08057 155.858 2.521 155.858 2.93994V3.35889C155.836 3.46631 155.826 3.54688 155.826 3.60059C155.826 4.05176 155.573 4.49219 155.068 4.92188C154.563 5.35156 154.005 5.56641 153.393 5.56641H152.893C152.292 5.56641 151.771 5.37842 151.33 5.00244C150.9 4.61572 150.686 4.17529 150.686 3.68115L150.653 3.52002V3.10107ZM153.715 24.0645H152.184C150.755 24.0645 149.896 24.0269 149.606 23.9517C149.327 23.8657 149.187 23.6348 149.187 23.2588C149.187 22.8721 149.456 22.4102 149.993 21.873C150.53 21.3359 150.868 20.7988 151.008 20.2617C151.147 19.7139 151.217 18.3013 151.217 16.0239C151.217 13.7358 151.158 12.3877 151.04 11.9795C150.922 11.5713 150.551 11.2222 149.928 10.9321C149.316 10.6313 149.01 10.2769 149.01 9.86865C149.01 9.44971 149.294 9.14355 149.864 8.9502C151.153 8.52051 152.576 8.30566 154.134 8.30566H154.375C154.999 8.30566 155.358 8.56885 155.455 9.09521C155.509 9.396 155.536 11.2007 155.536 14.5093C155.536 17.8071 155.605 19.7407 155.745 20.3101C155.896 20.8687 156.271 21.4648 156.873 22.0986C157.475 22.7324 157.775 23.1299 157.775 23.291V23.4844C157.775 23.8711 156.422 24.0645 153.715 24.0645Z" fill="#2D6346"/>
<path d="M141.147 17.4097C141.147 16.9263 140.997 16.6846 140.696 16.6846H140.277C140.009 16.7383 139.805 16.7651 139.665 16.7651C138.688 16.7651 137.866 17.0498 137.2 17.6191C136.534 18.1885 136.201 18.833 136.201 19.5527V19.9233C136.201 20.4712 136.373 20.9438 136.716 21.3413C137.06 21.7388 137.479 21.9375 137.973 21.9375H138.489C139.198 21.9375 139.805 21.7173 140.31 21.2769C140.814 20.8364 141.067 20.4067 141.067 19.9878C141.11 19.7729 141.131 19.6333 141.131 19.5688L141.164 19.311V18.6182L141.18 18.3604V17.6514C141.158 17.5439 141.147 17.4634 141.147 17.4097ZM147.689 22.5176V22.7593C147.689 23.1245 147.287 23.4683 146.481 23.7905C145.675 24.1021 144.719 24.2578 143.613 24.2578C142.936 24.2578 142.351 23.9517 141.856 23.3394C141.588 22.9956 141.378 22.8237 141.228 22.8237C141.078 22.813 140.82 22.9365 140.455 23.1943C139.23 24.0322 137.909 24.4512 136.491 24.4512C136.48 24.4512 136.469 24.4565 136.458 24.4673C135.062 24.4673 133.945 24.1074 133.107 23.3877C132.269 22.668 131.845 21.6582 131.834 20.3584C131.834 17.5654 133.982 15.8091 138.279 15.0894C139.311 14.9282 139.928 14.8047 140.132 14.7188C140.755 14.4609 141.067 13.8862 141.067 12.9946C141.067 12.103 140.863 11.4639 140.455 11.0771C140.057 10.6797 139.59 10.481 139.053 10.481C138.204 10.481 137.436 10.9375 136.749 11.8506C136.061 12.7529 135.261 13.2041 134.348 13.2041C133.811 13.2041 133.402 13.0591 133.123 12.769C132.854 12.4683 132.72 12.1621 132.72 11.8506C132.72 10.9053 133.214 10.1533 134.203 9.59473C135.846 8.6709 137.586 8.20898 139.423 8.20898H140.261C141.185 8.20898 142.066 8.40771 142.904 8.80518C143.752 9.19189 144.408 9.78809 144.87 10.5938C145.332 11.3994 145.562 13.1987 145.562 15.9917C145.562 18.7847 145.648 20.396 145.82 20.8257C146.003 21.2446 146.357 21.5562 146.884 21.7603C147.421 21.9536 147.689 22.2061 147.689 22.5176Z" fill="#2D6346"/>
<path d="M119.428 19.3271C119.428 20.2402 119.643 20.9546 120.072 21.4702C120.513 21.9751 121.114 22.2275 121.877 22.2275H122.618C123.467 22.2275 124.203 21.728 124.826 20.729C125.459 19.7192 125.776 18.4785 125.776 17.0068V15.9272C125.776 14.2944 125.449 12.9893 124.793 12.0117C124.149 11.0342 123.354 10.5454 122.409 10.5454H122.135C121.071 10.5454 120.335 10.9106 119.927 11.6411C119.519 12.3608 119.315 13.8755 119.315 16.1851V16.5073L119.331 16.6685V17.458L119.347 17.6191C119.347 17.7266 119.347 17.834 119.347 17.9414L119.412 19.021C119.422 19.1284 119.428 19.2305 119.428 19.3271ZM116.56 23.8711C115.775 23.8711 115.254 23.7368 114.997 23.4683C114.75 23.189 114.626 22.856 114.626 22.4692C114.626 22.0825 114.728 21.25 114.932 19.9717C115.136 18.6826 115.238 17.7964 115.238 17.313L115.254 16.9263V15.3472L115.271 14.5576V11.77C115.271 7.61279 115.217 5.2334 115.109 4.63184C115.002 4.03027 114.739 3.56299 114.32 3.22998C113.6 2.6499 113.24 2.26318 113.24 2.06982C113.24 1.61865 113.665 1.28027 114.513 1.05469C115.759 0.72168 116.764 0.555176 117.526 0.555176H117.897C118.692 0.555176 119.17 0.87207 119.331 1.50586C119.438 1.93555 119.492 3.18701 119.492 5.26025C119.492 7.3335 119.519 8.48828 119.573 8.72461C119.659 9.10059 119.938 9.28857 120.411 9.28857C120.411 9.28857 120.55 9.24023 120.83 9.14355C122.108 8.69238 123.198 8.4668 124.101 8.4668C126.045 8.4668 127.586 9.19189 128.725 10.6421C129.864 12.0815 130.433 13.8271 130.433 15.8789V16.2817C130.433 17.3774 130.208 18.4517 129.756 19.5044C128.886 21.5562 127.511 22.958 125.631 23.71C124.611 24.1182 123.612 24.3223 122.634 24.3223H122.248C121.925 24.3223 121.431 24.2524 120.765 24.1128C120.099 23.9731 119.422 23.9033 118.735 23.9033L118.38 23.8711C118.015 23.8389 117.773 23.8228 117.655 23.8228L117.285 23.8389C116.962 23.8604 116.721 23.8711 116.56 23.8711Z" fill="#2D6346"/>
<path d="M107.215 9.93311C108.461 9.07373 109.524 8.64404 110.405 8.64404C111.286 8.64404 111.882 8.83203 112.194 9.20801C112.516 9.58398 112.677 10.0352 112.677 10.5615C112.677 11.0879 112.532 11.5605 112.242 11.9795C111.963 12.3877 111.641 12.5918 111.275 12.5918C110.921 12.5918 110.427 12.4521 109.793 12.1729C109.159 11.8936 108.67 11.7539 108.327 11.7539C107.983 11.7539 107.596 11.9365 107.167 12.3018C106.737 12.667 106.436 13.188 106.264 13.8647C106.103 14.5415 106.022 15.605 106.022 17.0552C106.022 18.4946 106.125 19.4292 106.329 19.8589C106.533 20.2778 106.952 20.8311 107.585 21.5186C108.219 22.2061 108.536 22.77 108.536 23.2104C108.536 23.7261 107.29 23.9839 104.798 23.9839H103.412L103.074 23.9678C102.848 23.957 102.617 23.9517 102.381 23.9517L102.042 23.9355C101.817 23.9248 101.581 23.9194 101.333 23.9194C100.206 23.9194 99.6416 23.6777 99.6416 23.1943C99.6416 22.7109 99.9209 22.2222 100.479 21.728C101.049 21.2339 101.393 20.7881 101.511 20.3906C101.64 19.9932 101.704 18.6289 101.704 16.2979C101.704 13.9668 101.629 12.5703 101.479 12.1084C101.339 11.6465 100.99 11.2544 100.431 10.9321C99.8833 10.5991 99.6094 10.2554 99.6094 9.90088C99.6094 9.40674 99.98 9.05762 100.721 8.85352C101.838 8.55273 102.848 8.40234 103.75 8.40234C104.653 8.40234 105.26 8.50439 105.571 8.7085C105.7 8.79443 105.845 9.06836 106.006 9.53027C106.178 9.99219 106.377 10.2231 106.603 10.2231C106.699 10.2231 106.903 10.1265 107.215 9.93311Z" fill="#2D6346"/>
<path d="M98.144 22.7754C98.144 23.6455 96.9141 24.0806 94.4541 24.0806C93.7236 24.0806 93.2241 23.9785 92.9556 23.7744C92.687 23.5703 92.4668 23.3018 92.2949 22.9688C92.123 22.625 91.978 22.4531 91.8599 22.4531C91.7524 22.4531 91.4248 22.6304 90.877 22.9849C90.3291 23.3286 89.7437 23.6348 89.1206 23.9033C88.5083 24.1719 87.7026 24.3062 86.7036 24.3062C85.7046 24.3062 84.856 24.0913 84.1577 23.6616C83.4702 23.2319 82.9277 22.6089 82.5303 21.7925C82.1436 20.9761 81.9502 19.1338 81.9502 16.2656C81.9502 13.3975 81.8857 11.8291 81.7568 11.5605C81.6387 11.292 81.2949 11.0288 80.7256 10.771C80.1562 10.5132 79.8716 10.1963 79.8716 9.82031C79.8716 9.30469 80.1938 8.96094 80.8384 8.78906C81.8374 8.52051 83.0781 8.38623 84.5605 8.38623C85.2695 8.38623 85.7314 8.69238 85.9463 9.30469C86.1611 9.91699 86.2686 11.625 86.2686 14.4287C86.2686 17.2324 86.3599 18.9995 86.5425 19.73C86.7896 20.7397 87.332 21.3413 88.1699 21.5347C88.3848 21.5884 88.605 21.6152 88.8306 21.6152C89.2173 21.6152 89.6147 21.54 90.0229 21.3896C90.689 21.1533 91.1885 20.8042 91.5215 20.3423C91.8652 19.8696 92.0371 18.6665 92.0371 16.7329C92.0371 14.7993 91.9404 13.4351 91.7471 12.6401C91.5537 11.8452 91.2798 11.1792 90.9253 10.6421C90.5708 10.105 90.3936 9.72363 90.3936 9.49805C90.3936 8.74609 91.7793 8.37012 94.5508 8.37012H95.002C95.5605 8.37012 95.9365 8.48291 96.1299 8.7085C96.334 8.92334 96.436 9.48193 96.436 10.3843L96.3716 12.7207L96.3555 13.2041V15.5889C96.3555 17.9521 96.4199 19.4131 96.5488 19.9717C96.6777 20.5303 96.9731 21.1157 97.4351 21.728C97.9077 22.3403 98.144 22.6895 98.144 22.7754Z" fill="#2D6346"/>
<path d="M70.0122 8.82129C70.4956 9.10059 70.7373 9.69141 70.7373 10.5938C70.7373 11.4961 70.6729 12.0923 70.5439 12.3823C70.415 12.6724 70.1626 12.8174 69.7866 12.8174C69.1851 12.8174 68.5352 12.3823 67.8369 11.5122C67.1494 10.6421 66.2793 10.207 65.2266 10.207C64.625 10.207 64.147 10.3628 63.7925 10.6743C63.438 10.9858 63.2607 11.3296 63.2607 11.7056C63.2607 12.3501 63.5723 12.8872 64.1953 13.3169C64.4961 13.521 65.4575 13.9668 67.0796 14.6543C68.7124 15.3311 69.8779 16.0347 70.5762 16.7651C71.2852 17.4849 71.6396 18.4678 71.6396 19.7139C71.6396 20.96 71.1079 22.0449 70.0444 22.9688C68.981 23.8926 67.6167 24.3545 65.9517 24.3545H65.0977C63.0137 24.3545 61.4507 24.1074 60.4087 23.6133C59.6782 23.2695 59.313 22.4531 59.313 21.1641C59.313 19.875 59.5547 19.2305 60.0381 19.2305C60.6504 19.2305 61.4077 19.73 62.3101 20.729C63.2231 21.728 64.2114 22.2275 65.2749 22.2275C65.9194 22.2275 66.4619 22.0933 66.9023 21.8247C67.3535 21.5454 67.5791 21.1157 67.5791 20.5356C67.5791 19.9448 67.2676 19.4185 66.6445 18.9565C66.3115 18.7095 65.4092 18.2744 63.9375 17.6514C62.4766 17.0176 61.4346 16.4053 60.8115 15.8145C59.877 14.9336 59.4097 13.854 59.4097 12.5757C59.4097 11.2866 59.9575 10.2231 61.0532 9.38525C62.1489 8.53662 63.4272 8.1123 64.8882 8.1123H65.3232C67.6221 8.1123 69.1851 8.34863 70.0122 8.82129Z" fill="#2D6346"/>
<path d="M50.7578 3.10107C50.7578 2.47803 50.9995 1.95166 51.4829 1.52197C51.9771 1.09229 52.5088 0.877441 53.0781 0.877441H53.5938C53.7549 0.909668 53.8892 0.925781 53.9966 0.925781C54.5122 0.925781 54.9688 1.15674 55.3662 1.61865C55.7637 2.08057 55.9624 2.521 55.9624 2.93994V3.35889C55.9409 3.46631 55.9302 3.54688 55.9302 3.60059C55.9302 4.05176 55.6777 4.49219 55.1729 4.92188C54.668 5.35156 54.1094 5.56641 53.4971 5.56641H52.9976C52.396 5.56641 51.875 5.37842 51.4346 5.00244C51.0049 4.61572 50.79 4.17529 50.79 3.68115L50.7578 3.52002V3.10107ZM53.8193 24.0645H52.2886C50.8599 24.0645 50.0005 24.0269 49.7104 23.9517C49.4312 23.8657 49.2915 23.6348 49.2915 23.2588C49.2915 22.8721 49.5601 22.4102 50.0972 21.873C50.6343 21.3359 50.9727 20.7988 51.1123 20.2617C51.252 19.7139 51.3218 18.3013 51.3218 16.0239C51.3218 13.7358 51.2627 12.3877 51.1445 11.9795C51.0264 11.5713 50.6558 11.2222 50.0327 10.9321C49.4204 10.6313 49.1143 10.2769 49.1143 9.86865C49.1143 9.44971 49.3989 9.14355 49.9683 8.9502C51.2573 8.52051 52.6807 8.30566 54.2383 8.30566H54.48C55.103 8.30566 55.4629 8.56885 55.5596 9.09521C55.6133 9.396 55.6401 11.2007 55.6401 14.5093C55.6401 17.8071 55.71 19.7407 55.8496 20.3101C56 20.8687 56.376 21.4648 56.9775 22.0986C57.5791 22.7324 57.8799 23.1299 57.8799 23.291V23.4844C57.8799 23.8711 56.5264 24.0645 53.8193 24.0645Z" fill="#2D6346"/>
<path d="M45.9731 8.82129C46.4565 9.10059 46.6982 9.69141 46.6982 10.5938C46.6982 11.4961 46.6338 12.0923 46.5049 12.3823C46.376 12.6724 46.1235 12.8174 45.7476 12.8174C45.146 12.8174 44.4961 12.3823 43.7979 11.5122C43.1104 10.6421 42.2402 10.207 41.1875 10.207C40.5859 10.207 40.1079 10.3628 39.7534 10.6743C39.3989 10.9858 39.2217 11.3296 39.2217 11.7056C39.2217 12.3501 39.5332 12.8872 40.1562 13.3169C40.457 13.521 41.4185 13.9668 43.0405 14.6543C44.6733 15.3311 45.8389 16.0347 46.5371 16.7651C47.2461 17.4849 47.6006 18.4678 47.6006 19.7139C47.6006 20.96 47.0688 22.0449 46.0054 22.9688C44.9419 23.8926 43.5776 24.3545 41.9126 24.3545H41.0586C38.9746 24.3545 37.4116 24.1074 36.3696 23.6133C35.6392 23.2695 35.2739 22.4531 35.2739 21.1641C35.2739 19.875 35.5156 19.2305 35.999 19.2305C36.6113 19.2305 37.3687 19.73 38.271 20.729C39.1841 21.728 40.1724 22.2275 41.2358 22.2275C41.8804 22.2275 42.4229 22.0933 42.8633 21.8247C43.3145 21.5454 43.54 21.1157 43.54 20.5356C43.54 19.9448 43.2285 19.4185 42.6055 18.9565C42.2725 18.7095 41.3701 18.2744 39.8984 17.6514C38.4375 17.0176 37.3955 16.4053 36.7725 15.8145C35.8379 14.9336 35.3706 13.854 35.3706 12.5757C35.3706 11.2866 35.9185 10.2231 37.0142 9.38525C38.1099 8.53662 39.3882 8.1123 40.8491 8.1123H41.2842C43.583 8.1123 45.146 8.34863 45.9731 8.82129Z" fill="#2D6346"/>
<path d="M27.4277 17.4097C27.4277 16.9263 27.2773 16.6846 26.9766 16.6846H26.5576C26.2891 16.7383 26.085 16.7651 25.9453 16.7651C24.9678 16.7651 24.146 17.0498 23.48 17.6191C22.814 18.1885 22.481 18.833 22.481 19.5527V19.9233C22.481 20.4712 22.6528 20.9438 22.9966 21.3413C23.3403 21.7388 23.7593 21.9375 24.2534 21.9375H24.769C25.478 21.9375 26.085 21.7173 26.5898 21.2769C27.0947 20.8364 27.3472 20.4067 27.3472 19.9878C27.3901 19.7729 27.4116 19.6333 27.4116 19.5688L27.4438 19.311V18.6182L27.46 18.3604V17.6514C27.4385 17.5439 27.4277 17.4634 27.4277 17.4097ZM33.9697 22.5176V22.7593C33.9697 23.1245 33.5669 23.4683 32.7612 23.7905C31.9556 24.1021 30.9995 24.2578 29.8931 24.2578C29.2163 24.2578 28.6309 23.9517 28.1367 23.3394C27.8682 22.9956 27.6587 22.8237 27.5083 22.8237C27.3579 22.813 27.1001 22.9365 26.7349 23.1943C25.5103 24.0322 24.189 24.4512 22.771 24.4512C22.7603 24.4512 22.7495 24.4565 22.7388 24.4673C21.3423 24.4673 20.2251 24.1074 19.3872 23.3877C18.5493 22.668 18.125 21.6582 18.1143 20.3584C18.1143 17.5654 20.2627 15.8091 24.5596 15.0894C25.5908 14.9282 26.2085 14.8047 26.4126 14.7188C27.0356 14.4609 27.3472 13.8862 27.3472 12.9946C27.3472 12.103 27.1431 11.4639 26.7349 11.0771C26.3374 10.6797 25.8701 10.481 25.333 10.481C24.4844 10.481 23.7163 10.9375 23.0288 11.8506C22.3413 12.7529 21.541 13.2041 20.6279 13.2041C20.0908 13.2041 19.6826 13.0591 19.4033 12.769C19.1348 12.4683 19.0005 12.1621 19.0005 11.8506C19.0005 10.9053 19.4946 10.1533 20.4829 9.59473C22.1265 8.6709 23.8667 8.20898 25.7036 8.20898H26.5415C27.4653 8.20898 28.3462 8.40771 29.1841 8.80518C30.0327 9.19189 30.688 9.78809 31.1499 10.5938C31.6118 11.3994 31.8428 13.1987 31.8428 15.9917C31.8428 18.7847 31.9287 20.396 32.1006 20.8257C32.2832 21.2446 32.6377 21.5562 33.1641 21.7603C33.7012 21.9536 33.9697 22.2061 33.9697 22.5176Z" fill="#2D6346"/>
<path d="M8.56006 10.1909H8.25391C7.33008 10.1909 6.57275 10.7119 5.98193 11.7539C5.40186 12.7959 5.11182 14.042 5.11182 15.4922V16.3945C5.11182 18.0273 5.4502 19.4077 6.12695 20.5356C6.80371 21.6636 7.61475 22.2275 8.56006 22.2275H8.86621C9.69336 22.2275 10.4131 21.8086 11.0254 20.9707C11.6484 20.1221 11.96 18.9941 11.96 17.5869L11.9922 17.2485L12.0083 16.5718V16.3945L11.9922 16.2173V15.8789C11.9707 15.6426 11.96 15.4707 11.96 15.3633C11.96 13.9346 11.6216 12.7153 10.9448 11.7056C10.2681 10.6958 9.47314 10.1909 8.56006 10.1909ZM8.57617 8.04785H9.38184C10.3379 8.04785 11.3208 8.27344 12.3306 8.72461C14.2534 9.58398 15.5747 10.9805 16.2944 12.9141C16.6597 13.9131 16.8423 14.9336 16.8423 15.9756V16.2656C16.8423 17.3828 16.6167 18.4785 16.1655 19.5527C15.7144 20.627 15.1074 21.5186 14.3447 22.2275C12.7549 23.667 10.9287 24.3867 8.86621 24.3867C8.70508 24.3867 8.54395 24.3813 8.38281 24.3706C7.35156 24.3706 6.33643 24.1665 5.3374 23.7583C4.34912 23.3394 3.53809 22.7861 2.9043 22.0986C1.54004 20.5947 0.85791 18.7095 0.85791 16.4429V16.1689L0.874023 15.895C0.884766 14.896 1.07275 13.9077 1.43799 12.9302C2.14697 11.061 3.44678 9.68066 5.3374 8.78906C6.40088 8.29492 7.48047 8.04785 8.57617 8.04785Z" fill="#2D6346"/>
</svg>
